# xmcd
#
# Track frame offsets:
#	150
#	17739
#	33120
#	49183
#	64419
#	80803
#	95604
#	110154
#	123966
#	137225
#	150988
#	161416
#	176764
#	190497
#
# Disc length: 2749 seconds
#
# Revision: 1
# Processed by: cddbd v1.5.2PL0 Copyright (c) Steve Scherf et al.
# Submitted via: audiograbber 1.83.01
#
DISCID=c00abb0e
DTITLE=The BossHoss - Do Or Die
DYEAR=2009
DGENRE=
TTITLE0=Last Day (Do Or Die)
TTITLE1=Eagleize It
TTITLE2=Boon And Bain
TTITLE3=Jelly Bean
TTITLE4=Break Free
TTITLE5=21st Century Buttkickin' Love Affair
TTITLE6=Go! Go! Go!
TTITLE7=Rock On Rock
TTITLE8=Wolf Call
TTITLE9=Close
TTITLE10=Quick Joey Small
TTITLE11=Shake Your Hips
TTITLE12=Guitars And Cars
TTITLE13=Crazy About Mary
EXTD=
EXTT0=
EXTT1=
EXTT2=
EXTT3=
EXTT4=
EXTT5=
EXTT6=
EXTT7=
EXTT8=
EXTT9=
EXTT10=
EXTT11=
EXTT12=
EXTT13=
PLAYORDER=
